<?xml version="1.0" encoding="utf-8"?>
<!-- Generator: Adobe Illustrator 21.0.0, SVG Export Plug-In . SVG Version: 6.00 Build 0)  -->
<svg version="1.1" id="Layer_1" xmlns="http://www.w3.org/2000/svg" xmlns:xlink="http://www.w3.org/1999/xlink" x="0px" y="0px"
	 viewBox="0 0 345.9 237.3" style="enable-background:new 0 0 345.9 237.3;" xml:space="preserve">
<style type="text/css">
	.st0{fill:#5C443A;}
	.st1{fill:#FBB216;}
</style>
<title>hero-logo</title>
<g id="Layer_2">
	<g id="index">
		<path class="st0" d="M42.7,87.7c0,4.3-0.5,8.6-1.5,12.7c-0.9,3.6-2.5,7-4.8,10c-2.2,2.8-5,5.1-8.2,6.5c-3.8,1.7-7.9,2.5-12,2.3
			H2.9V117h2.5c0.7,0,1.4-0.1,2-0.4c0.6-0.3,1.2-0.7,1.7-1.1c0.5-0.5,0.9-1,1.2-1.7c0.3-0.6,0.5-1.3,0.5-2l0.8-80.7
			c0.1-1-0.1-2-0.4-3c-0.3-0.6-0.8-1.2-1.5-1.5c-0.7-0.3-1.5-0.5-2.3-0.5c-0.9,0-1.8,0-2.9,0v-2.3h14.5c3.2,0,6.4,0.3,9.5,1.2
			c2.7,0.7,5.2,2,7.5,3.7c2.1,1.7,3.7,3.8,4.8,6.2c1.2,2.8,1.8,5.8,1.7,8.8c0,2.1-0.3,4.3-0.9,6.3c-0.6,2.2-1.4,4.3-2.6,6.3
			c-1.1,1.9-2.6,3.6-4.3,5.1c-1.7,1.4-3.7,2.4-5.8,2.7c2.5,0.7,4.7,2,6.6,3.7c1.7,1.7,3.2,3.6,4.2,5.8c1.1,2.2,1.8,4.5,2.2,6.9
			C42.5,82.9,42.7,85.3,42.7,87.7z M35.7,88.3c0-1.4-0.1-2.9-0.2-4.6c-0.1-1.7-0.3-3.4-0.7-5.1c-0.3-1.7-0.8-3.4-1.4-5.1
			c-0.5-1.6-1.3-3-2.2-4.4c-0.9-1.2-2-2.2-3.2-3c-1.4-0.8-2.9-1.2-4.5-1.2h-5.5l-0.7,51c3.2,0,6.4-0.9,9-2.7c2.4-1.7,4.3-4,5.6-6.6
			c1.4-2.8,2.4-5.8,2.9-8.8C35.4,94.6,35.7,91.4,35.7,88.3z M18.5,25.9l-0.4,36.7h5.3c1.5,0,2.9-0.3,4.2-1c1.2-0.6,2.3-1.5,3.2-2.5
			c0.9-1.1,1.7-2.3,2.3-3.6c0.6-1.4,1.1-2.8,1.5-4.3c0.4-1.4,0.6-2.9,0.8-4.4c0.2-1.3,0.3-2.7,0.3-4c0-5.7-1.5-9.9-4.4-12.7
			s-7-4.1-12.1-4.2H18.5z"/>
		<path class="st0" d="M80.1,73.7c0,1.9,0,4,0,6.4s-0.1,4.8-0.4,7.3c-0.2,2.5-0.6,5-1.2,7.4c-0.5,2.3-1.4,4.5-2.6,6.5
			c-1.1,1.8-2.6,3.4-4.3,4.6c-2,1.2-4.3,1.8-6.6,1.7c-2.1,0.1-4.2-0.5-6-1.6c-1.6-1.1-3-2.4-4-4.1c-1.1-1.8-2-3.7-2.5-5.7
			c-0.6-2.2-1.1-4.4-1.4-6.6c-0.3-2.2-0.5-4.3-0.6-6.5c-0.1-2.1-0.1-4-0.1-5.6c0-2,0-4.2,0.1-6.7c0-2.5,0.2-5.1,0.5-7.8
			c0.3-2.6,0.7-5.2,1.3-7.7c0.6-2.3,1.5-4.6,2.7-6.6c1.1-1.9,2.6-3.5,4.5-4.7c2-1.2,4.4-1.8,6.7-1.8c2-0.1,4.1,0.4,5.8,1.4
			c1.6,0.9,2.9,2.2,3.9,3.7c1.1,1.7,1.9,3.6,2.4,5.5c0.6,2.2,1,4.4,1.3,6.6c0.3,2.3,0.4,4.7,0.5,7.1C80.1,69.1,80.1,71.4,80.1,73.7z
			 M66,44.5c-1.3,0-2.6,0.5-3.6,1.5c-1.1,1.2-1.9,2.5-2.4,4c-0.7,1.9-1.2,3.9-1.5,5.9c-0.4,2.2-0.6,4.6-0.8,7.1
			c-0.2,2.5-0.3,5-0.3,7.6c0,2.6,0,5.1,0,7.5c0,1.7,0,3.6,0,5.6s0.1,4.1,0.2,6.1c0.1,2,0.4,3.9,0.7,5.8c0.3,1.7,0.7,3.4,1.3,5
			c0.5,1.3,1.2,2.5,2.2,3.5c0.9,0.9,2,1.3,3.2,1.3c1.2,0,2.4-0.5,3.3-1.4c1-1,1.8-2.3,2.2-3.6c0.6-1.7,1.1-3.5,1.3-5.2
			c0.3-2,0.5-4.1,0.7-6.2c0.2-2.1,0.2-4.3,0.3-6.5c0-2.2,0-4.2,0-6.1c0-4.2,0-8.3-0.1-12.1c0-3.4-0.3-6.8-0.8-10.1
			c-0.3-2.4-1-4.8-2.1-6.9C69.3,45.5,67.7,44.5,66,44.5z"/>
		<path class="st0" d="M96.9,108.5c-0.1,0.9,0.1,1.8,0.4,2.6c0.3,0.6,0.8,1,1.4,1.3c0.6,0.3,1.3,0.5,2,0.5c0.8,0,1.6,0,2.4,0v2.3
			l-19.8,0.1V113c0.9,0,1.8,0.1,2.6,0.1c0.7,0,1.5-0.1,2.2-0.4c0.6-0.2,1.1-0.7,1.5-1.3c0.4-0.8,0.6-1.8,0.5-2.7l1.1-78.9
			c0-0.6-0.1-1.1-0.3-1.7c-0.2-0.6-0.5-1.1-0.8-1.6c-0.3-0.5-0.7-0.9-1.2-1.2c-0.5-0.3-1-0.5-1.6-0.5h-2.5v-2.3h20v2.3h-2.9
			c-1,0-2,0.5-2.6,1.3c-0.7,0.8-1.1,1.8-1.1,2.8l-0.6,34.6c1.2-2.6,3-5,5.3-6.8c1.8-1.3,4.1-2,6.3-2c1.8,0,3.5,0.4,5,1.4
			c1.4,0.9,2.6,2.1,3.5,3.5c0.9,1.5,1.6,3.1,2,4.8c0.4,1.7,0.7,3.4,0.7,5.2c0,5.1,0,10.3-0.1,15.4c-0.1,5.2-0.1,10.3-0.1,15.4
			c0,0.6,0.1,1.3,0.3,1.9c0.2,0.7,0.5,1.3,0.9,1.9c0.4,0.6,0.9,1.1,1.4,1.5c0.5,0.4,1.2,0.6,1.8,0.7h1.8v2.3l-19.7,0.1v-2.3h2.3
			c0.6,0,1.2-0.2,1.7-0.6c0.5-0.3,1-0.7,1.4-1.2c0.4-0.5,0.8-1,1-1.6c0.2-0.6,0.4-1.2,0.4-1.8c0-4.1,0-8.2,0.1-12.2V84
			c0-1.8,0-3.6,0-5.3s0-3.4,0-5v-4.4c0-0.9-0.1-2-0.2-3.3c-0.1-1.2-0.3-2.4-0.7-3.6c-0.3-1.1-0.9-2-1.7-2.8c-0.9-0.8-2-1.2-3.2-1.2
			c-1.4,0-2.8,0.4-4,1.3c-1.2,0.9-2.2,2.1-3,3.3c-0.9,1.4-1.6,2.9-2.1,4.4c-0.5,1.5-1,3.1-1.3,4.7L96.9,108.5z"/>
		<path class="st0" d="M159.9,73.7c0,1.9,0,4,0,6.4s-0.1,4.8-0.4,7.3c-0.2,2.5-0.6,5-1.2,7.4c-0.5,2.3-1.4,4.5-2.5,6.5
			c-1.1,1.8-2.6,3.4-4.3,4.6c-2,1.2-4.3,1.8-6.6,1.7c-2.1,0.1-4.2-0.5-6-1.6c-1.6-1.1-3-2.4-4-4.1c-1.1-1.8-2-3.7-2.5-5.7
			c-0.6-2.2-1.1-4.4-1.4-6.6c-0.3-2.2-0.5-4.3-0.6-6.5c-0.1-2.1-0.1-4-0.1-5.6c0-2,0-4.2,0.1-6.7s0.2-5.1,0.5-7.7
			c0.3-2.6,0.7-5.2,1.3-7.7c0.6-2.3,1.5-4.6,2.7-6.7c1.1-1.9,2.6-3.5,4.4-4.7c2-1.2,4.4-1.8,6.7-1.8c2-0.1,4.1,0.4,5.8,1.4
			c1.6,0.9,2.9,2.2,3.9,3.8c1.1,1.7,1.9,3.6,2.4,5.5c0.6,2.2,1,4.4,1.3,6.6c0.3,2.3,0.4,4.7,0.5,7.1S159.9,71.4,159.9,73.7z
			 M145.9,44.5c-1.4,0-2.7,0.5-3.6,1.5c-1.1,1.2-1.9,2.5-2.4,4c-0.7,1.9-1.2,3.9-1.5,5.9c-0.4,2.2-0.6,4.6-0.8,7.1
			c-0.2,2.5-0.3,5-0.3,7.6c0,2.6,0,5.1,0,7.5c0,1.7,0,3.6,0,5.6s0.1,4.1,0.2,6.1c0.1,2,0.4,3.9,0.7,5.8c0.3,1.7,0.7,3.4,1.3,5
			c0.5,1.3,1.2,2.5,2.2,3.5c0.9,0.9,2,1.3,3.2,1.3c1.2,0,2.4-0.5,3.3-1.4c1-1,1.8-2.3,2.2-3.6c0.6-1.7,1.1-3.5,1.3-5.3
			c0.3-2,0.5-4.1,0.7-6.2c0.2-2.1,0.3-4.3,0.3-6.5c0-2.2,0-4.2,0-6.1c0-4.2,0-8.3-0.1-12.1c0-3.4-0.3-6.8-0.8-10.1
			c-0.3-2.4-1-4.8-2.1-6.9C149.2,45.6,147.6,44.6,145.9,44.5z"/>
		<path class="st0" d="M184,113.6l-19.8,0.7l-0.1-2.3l2.3-0.1c0.6,0,1.2-0.2,1.7-0.5c0.5-0.3,1-0.8,1.4-1.3c0.4-0.5,0.7-1.1,0.9-1.7
			c0.2-0.5,0.3-1.1,0.3-1.7l0.9-74c0-0.8-0.1-1.6-0.2-2.3c-0.1-0.8-0.4-1.5-0.7-2.2c-0.3-0.7-0.8-1.2-1.4-1.7
			c-0.7-0.5-1.5-0.7-2.3-0.7l-2.3,0.1v-2.5h13.8l-0.9,82.2c0,0.6,0.1,1.2,0.4,1.8c0.3,0.7,0.6,1.3,1,1.9c0.4,0.6,0.9,1.1,1.4,1.4
			c0.5,0.4,1.2,0.6,1.8,0.5h1.9L184,113.6z"/>
		<path class="st0" d="M18.1,169h4.8c1.2,0.1,2.3-0.4,2.9-1.4c0.6-1,0.8-2,0.8-3.1v-5.9H29v24.5h-2.4v-7.1c0-1.8-0.4-3-1.2-3.7
			c-1.1-0.7-2.4-1.1-3.7-1c-0.4,0-0.9,0-1.5,0.1s-1.3,0.1-2,0.1V218l6.9-0.1c2,0,3.9-0.7,5.4-2c1.5-1.4,2.3-3.3,2.2-5.3v-14h2.3
			v23.6l-31,0.7v-2.3c1,0,1.9,0,2.8-0.1c0.8-0.1,1.6-0.3,2.4-0.6c0.7-0.3,1.3-0.9,1.6-1.5c0.4-0.9,0.7-1.9,0.6-2.9v-79.8
			c0.1-1-0.1-2.1-0.6-3c-0.4-0.7-0.9-1.2-1.6-1.5c-0.8-0.3-1.6-0.5-2.4-0.5c-0.9,0-1.9,0-2.8,0v-2.3L36,126l0.1,21.4h-2.3l-0.1-11.9
			c-0.1-1.1-0.4-2.3-1-3.3c-0.5-0.9-1.2-1.7-2-2.3c-0.8-0.6-1.7-1-2.7-1.3c-1-0.3-2.1-0.4-3.2-0.4c-1.1,0-2.2,0-3.4,0.1
			s-2.2,0.1-3.3,0.1L18.1,169z"/>
		<path class="st0" d="M48.3,158c-0.3-1-1-1.7-2-2.1c-1.4-0.4-2.8-0.6-4.3-0.5v-1.8l19,0.1v1.8h-3c-0.7,0-1.4,0.4-1.7,1
			c-0.4,0.6-0.6,1.3-0.6,2c0.3,1.7,0.7,3.3,1.2,5c0.8,2.9,1.9,7,3.5,12.3l3.8-9c1.1-2.7,2.1-5.1,2.9-7.1c0.8-2,1.4-3.6,1.9-4.8
			c0.3-0.7,0.5-1.4,0.7-2.1c0.1-0.7-0.2-1.5-0.8-2c-0.5-0.4-1.2-0.7-1.9-0.9c-0.8-0.2-1.5-0.3-2.3-0.2h-2.1V148h17.1v1.8H77
			c-1.2-0.1-2.4,0.3-3.2,1.2c-0.9,0.8-1.5,1.8-2,2.9l-10.2,25.7c1,3.3,2.2,6.9,3.5,10.8c1.3,3.9,2.8,8,4.5,12.5
			c0.3,0.8,0.6,1.5,0.9,2.3c0.2,0.4,0.5,0.8,0.9,1.1c0.5,0.2,1,0.3,1.5,0.3c0.7,0,1.6,0,2.8-0.1l-0.1,1.7H56.6v-1.6h3.8
			c0.5,0,1.1-0.1,1.5-0.4c0.5-0.3,0.7-0.8,0.7-1.4c0,0-0.1-0.5-0.4-1.4s-0.6-2-1-3.5s-0.9-3.1-1.5-5s-1.2-3.9-1.9-6.1
			c-1.3,3.3-2.5,6.2-3.5,8.6c-1,2.4-1.8,4.4-2.4,6c-0.6,1.6-1,2.8-1.3,3.7c-0.2,0.6-0.4,1.1-0.4,1.7c-0.1,0.7,0.2,1.5,0.7,2
			c0.5,0.4,1.1,0.7,1.8,0.9c0.7,0.2,1.5,0.2,2.2,0.2h2v1.6l-17.6-0.1v-1.6h3.3c1.1,0.1,2.2-0.3,2.9-1.1c0.7-0.9,1.3-1.8,1.7-2.9
			l9.3-22.8c-1-3.2-2-6.3-3-9.5c-1-3.2-1.9-6.1-2.7-8.6c-0.8-2.6-1.4-4.7-1.9-6.3S48.3,158.1,48.3,158z"/>
		<path class="st0" d="M92.6,156.9c1.2-3.6,2.7-6.2,4.5-7.9c1.9-1.7,4.3-2.6,6.8-2.5c1.5-0.1,2.9,0.3,4.1,1.1c1.1,0.8,2.1,1.8,2.8,3
			c0.8,1.3,1.3,2.8,1.7,4.3c0.4,1.6,0.7,3.3,0.9,5c0.2,1.7,0.3,3.4,0.3,5.1c0,1.7,0,3.3,0,4.8c0,4.1-0.1,8-0.3,11.9
			c-0.2,3.5-0.7,7-1.7,10.3c-0.8,2.7-2.2,5.3-4.2,7.3c-2.1,1.9-4.8,2.9-7.6,2.7c-1.6,0-3.2-0.5-4.5-1.5c-1.3-1-2.5-2.2-3.4-3.6
			l-0.6,29.7c0,0.5,0,1,0.2,1.5c0.2,0.5,0.5,1,0.8,1.4c0.3,0.4,0.7,0.7,1.2,1c0.5,0.3,1,0.4,1.5,0.4c0.6,0,1.3,0,1.9-0.1
			s1.3-0.1,1.9-0.2l0.1,2.5l-21.9,1.1v-2.5h1.9c0.6,0,1.3,0,1.9-0.1c0.5,0,1-0.2,1.5-0.6c0.4-0.3,0.8-0.7,1.1-1.2
			c0.3-0.5,0.6-1,0.7-1.5c0.2-0.5,0.3-1,0.3-1.5l1.2-71.8c0.1-1-0.2-2-0.8-2.8c-0.5-0.6-1.2-1-1.9-1.2c-0.8-0.2-1.7-0.3-2.5-0.3
			c-0.9,0-1.8,0-2.7,0v-2.5l14.8,0.1L92.6,156.9z M101.8,150.2c-1,0-2,0.3-2.7,0.9c-0.9,0.7-1.6,1.5-2.2,2.4
			c-0.7,1.1-1.3,2.2-1.7,3.4c-0.5,1.3-0.9,2.6-1.3,3.9c-0.4,1.3-0.7,2.6-0.9,3.9s-0.4,2.4-0.6,3.5L92,192.7c0.4,0.7,0.9,1.4,1.4,2.1
			c0.6,0.7,1.2,1.4,1.9,2c0.7,0.6,1.4,1.1,2.2,1.5c0.8,0.4,1.6,0.6,2.5,0.6c1.8,0.1,3.4-0.8,4.3-2.4c1.1-2,1.9-4.2,2.2-6.4
			c0.5-3.1,0.8-6.3,0.8-9.4c0.1-3.6,0.1-7.3,0.1-11.3c0-2.6,0-5.1-0.1-7.4c0-2-0.2-4-0.6-6c-0.2-1.5-0.8-2.9-1.7-4.1
			c-0.8-1-2-1.6-3.2-1.5L101.8,150.2z"/>
		<path class="st0" d="M136.9,215.6l-19.8,0.7l-0.2-2.3l2.3-0.1c0.6,0,1.2-0.2,1.7-0.5c0.5-0.3,1-0.8,1.4-1.3
			c0.4-0.5,0.7-1.1,0.9-1.7c0.2-0.5,0.3-1.1,0.3-1.7l0.9-74c0-0.8-0.1-1.6-0.2-2.3c-0.1-0.8-0.4-1.5-0.7-2.2
			c-0.3-0.7-0.8-1.2-1.4-1.7c-0.7-0.5-1.5-0.7-2.3-0.7l-2.3,0.1v-2.5h13.8l-0.9,82.2c0,0.6,0.1,1.2,0.4,1.8c0.3,0.7,0.6,1.3,1,1.9
			c0.4,0.6,0.9,1.1,1.4,1.4c0.5,0.4,1.2,0.6,1.8,0.5h1.9V215.6z"/>
		<path class="st0" d="M171,175.6c0,1.9,0,4,0,6.4c0,2.4-0.1,4.8-0.4,7.4c-0.2,2.5-0.6,5-1.2,7.4c-0.5,2.3-1.4,4.5-2.5,6.5
			c-1.1,1.8-2.6,3.4-4.3,4.6c-2,1.2-4.3,1.8-6.6,1.7c-2.1,0.1-4.2-0.5-6-1.6c-1.6-1.1-3-2.4-4-4.1c-1.1-1.8-2-3.7-2.5-5.7
			c-0.6-2.2-1.1-4.4-1.4-6.6c-0.3-2.2-0.5-4.3-0.6-6.5c-0.1-2.1-0.1-4-0.1-5.6c0-2,0-4.2,0.1-6.7c0-2.5,0.2-5.1,0.5-7.7
			c0.3-2.6,0.7-5.2,1.3-7.7c0.6-2.3,1.5-4.6,2.7-6.7c1.1-1.9,2.6-3.5,4.5-4.7c2-1.2,4.4-1.8,6.7-1.8c2-0.1,4.1,0.4,5.8,1.4
			c1.6,0.9,2.9,2.2,3.9,3.8c1.1,1.7,1.9,3.6,2.4,5.5c0.6,2.2,1,4.4,1.3,6.6c0.3,2.3,0.4,4.7,0.5,7.1C171,171.1,171,173.4,171,175.6z
			 M156.9,146.5c-1.3,0-2.6,0.5-3.6,1.5c-1.1,1.2-1.9,2.5-2.4,4c-0.7,1.9-1.2,3.9-1.5,5.9c-0.4,2.2-0.6,4.6-0.8,7.1
			c-0.2,2.5-0.3,5-0.3,7.6c0,2.6,0,5.1,0,7.5c0,1.7,0,3.6,0,5.6s0.1,4.1,0.2,6.1c0.1,2,0.4,3.9,0.7,5.8c0.3,1.7,0.7,3.4,1.3,5
			c0.5,1.3,1.2,2.5,2.2,3.5c0.9,0.9,2,1.3,3.2,1.3c1.2,0,2.4-0.5,3.3-1.4c1-1,1.8-2.3,2.2-3.6c0.6-1.7,1.1-3.5,1.3-5.2
			c0.3-2,0.5-4.1,0.7-6.2c0.2-2.1,0.2-4.3,0.3-6.5c0-2.2,0-4.2,0-6.1c0-4.2,0-8.3-0.1-12.1c0-3.4-0.3-6.8-0.8-10.1
			c-0.3-2.4-1-4.8-2.1-6.9C160.2,147.5,158.6,146.5,156.9,146.5z"/>
		<path class="st0" d="M193.1,218.4h4l-0.1,2.5l-21.8-0.3v-2.3h3.8c0.5,0,1.1-0.2,1.5-0.5c0.5-0.3,0.9-0.7,1.2-1.1
			c0.3-0.4,0.6-0.9,0.8-1.5c0.2-0.5,0.3-1,0.3-1.5l0.4-54.7c0.1-1-0.2-2-0.8-2.8c-0.5-0.6-1.2-1-1.9-1.2c-0.8-0.2-1.7-0.3-2.6-0.3
			c-1,0-1.9,0.1-2.8,0.1v-2.3c2.5,0,5,0,7.5-0.1c2.5,0,5-0.1,7.5-0.1c2.9-0.1,5.8,0.3,8.6,1c2.3,0.6,4.5,1.7,6.4,3.3
			c1.8,1.6,3.1,3.6,3.9,5.8c1,2.8,1.4,5.7,1.3,8.6c0,1.9-0.2,3.7-0.6,5.6c-0.4,1.9-1.1,3.7-2,5.4c-0.9,1.6-2.1,3.1-3.5,4.2
			c-1.5,1.2-3.4,1.9-5.3,2c2.8,1.2,5.2,3.1,6.9,5.5c1.7,2.4,2.6,5.3,2.7,8.3c0.1,2.9,0.2,5.9,0.4,8.8c0.2,2.9,0.3,5.8,0.6,8.7
			c0.1,1.2,0.3,2.4,0.6,3.5c0.3,1,0.7,1.9,1.3,2.8c0.6,0.8,1.3,1.4,2.2,1.9c1.1,0.5,2.2,0.7,3.4,0.7v2c-1.8,0-3.5-0.3-5.2-0.9
			c-1.5-0.6-3-1.4-4.3-2.5c-1.2-1-2.3-2.2-3.1-3.5c-0.8-1.3-1.3-2.7-1.5-4.1c-0.5-2.8-0.7-5.7-0.7-8.6c0-2.9-0.1-5.8-0.3-8.7
			c-0.1-1.3-0.3-2.7-0.6-4c-0.3-1.5-0.8-3-1.5-4.4c-0.6-1.3-1.5-2.5-2.5-3.6c-1-1-2.3-1.5-3.7-1.5h-3.9l-0.1,25c0,0.5,0.1,1,0.3,1.5
			c0.2,0.5,0.4,1,0.7,1.5c0.3,0.4,0.7,0.8,1.1,1.1C192.1,218.3,192.6,218.4,193.1,218.4z M193.9,187c1.8,0.1,3.6-0.5,4.9-1.7
			c1.2-1.2,2.2-2.6,2.8-4.2c0.7-1.7,1.1-3.5,1.3-5.4c0.2-1.7,0.3-3.5,0.3-5.2c0-2-0.2-3.9-0.5-5.8c-0.3-1.8-0.9-3.5-1.9-5
			c-0.9-1.4-2.2-2.6-3.6-3.4c-1.8-0.9-3.8-1.4-5.8-1.3h-0.7c-0.2,0-0.5,0-0.7,0.1l-0.3,32L193.9,187z"/>
		<path class="st0" d="M229.1,173.8c2,0,3.6,0,4.9,0.1c1,0.1,2,0,2.9-0.4c0.7-0.4,1.2-1.2,1.3-2c0.2-1.5,0.3-3.1,0.2-4.6h2.3v18
			h-2.3v-5.2c0-0.4-0.1-0.8-0.2-1.2c-0.1-0.4-0.3-0.8-0.5-1.2c-0.2-0.4-0.5-0.7-0.8-1c-0.3-0.3-0.7-0.4-1.1-0.4L229,176l0.7,26.6h4
			c1.3,0,2.6,0,3.9-0.1c0.9,0,1.7-0.3,2.4-0.7c0.8-0.4,1.5-1,2.1-1.7c0.6-0.7,1.1-1.4,1.4-2.2c0.3-0.8,0.5-1.6,0.5-2.4l0.1-9.4h2.3
			l-0.2,18.7c-5.1,0.1-10.3,0.2-15.4,0.4s-10.3,0.3-15.4,0.4l-0.1-2.4c1.2,0,2.2,0,3.1,0c0.8,0,1.6-0.2,2.3-0.5
			c0.6-0.3,1.2-0.9,1.4-1.5c0.4-1,0.6-2.1,0.5-3.1v-0.4l-0.9-43.1c0-1.1-0.2-2.3-0.6-3.3c-0.3-0.8-0.8-1.4-1.5-1.8
			c-0.7-0.4-1.6-0.7-2.4-0.7c-1.1-0.1-2.2-0.1-3.3-0.1l-0.1-2.3l31-0.9l0.1,19h-2.3l-0.1-9.9c0-1.6-0.3-3.1-1.1-4.5
			c-0.7-1.3-2.1-1.9-4.1-1.9c-1.5,0-3,0-4.4,0.1c-1.4,0-2.9,0.1-4.4,0.1L229.1,173.8z"/>
		<path class="st0" d="M268.3,218.4h4l-0.1,2.5l-21.8-0.3v-2.3h3.8c0.5,0,1.1-0.2,1.5-0.5c0.5-0.3,0.9-0.7,1.2-1.1
			c0.3-0.4,0.6-0.9,0.8-1.5c0.2-0.5,0.3-1,0.3-1.5l0.4-54.7c0.1-1-0.2-2-0.8-2.8c-0.5-0.6-1.2-1-1.9-1.2c-0.8-0.2-1.7-0.3-2.6-0.3
			c-1,0-1.9,0.1-2.8,0.1v-2.3c2.5,0,5,0,7.5-0.1c2.5,0,5-0.1,7.5-0.1c2.9-0.1,5.8,0.3,8.6,1c2.3,0.6,4.5,1.7,6.4,3.3
			c1.8,1.6,3.1,3.6,3.9,5.8c1,2.8,1.4,5.7,1.3,8.6c0,1.9-0.2,3.7-0.6,5.6c-0.4,1.9-1.1,3.7-2,5.4c-0.9,1.6-2.1,3.1-3.5,4.2
			c-1.5,1.2-3.4,1.9-5.3,2c2.8,1.2,5.2,3.1,6.9,5.5c1.7,2.4,2.6,5.3,2.7,8.3c0.1,2.9,0.2,5.9,0.4,8.8c0.2,2.9,0.4,5.8,0.6,8.7
			c0.1,1.2,0.3,2.4,0.6,3.5c0.3,1,0.7,1.9,1.3,2.8c0.6,0.8,1.3,1.4,2.2,1.9c1.1,0.5,2.2,0.7,3.4,0.7v2c-1.8,0-3.5-0.3-5.2-0.9
			c-1.5-0.6-3-1.4-4.3-2.5c-1.2-1-2.3-2.2-3.1-3.5c-0.8-1.3-1.3-2.7-1.5-4.1c-0.5-2.8-0.7-5.7-0.7-8.6c0-2.9-0.1-5.8-0.3-8.7
			c-0.1-1.3-0.3-2.7-0.6-4c-0.3-1.5-0.8-3-1.5-4.3c-0.6-1.3-1.5-2.5-2.5-3.6c-1-1-2.3-1.5-3.7-1.5h-3.9l-0.1,25c0,0.5,0.1,1,0.3,1.5
			c0.2,0.5,0.4,1,0.7,1.5c0.3,0.4,0.7,0.8,1.1,1C267.3,218.3,267.8,218.4,268.3,218.4z M269.2,187c1.8,0.1,3.6-0.5,4.9-1.7
			c1.2-1.2,2.2-2.6,2.8-4.3c0.7-1.7,1.1-3.5,1.3-5.4c0.2-1.7,0.3-3.5,0.3-5.2c0-2-0.2-3.9-0.5-5.8c-0.3-1.8-0.9-3.5-1.9-5
			c-0.9-1.4-2.2-2.6-3.6-3.4c-1.8-0.9-3.8-1.4-5.8-1.3h-0.7c-0.2,0-0.5,0-0.7,0.1l-0.3,32L269.2,187z"/>
		<path class="st1" d="M340.3,48.5c-6.7-13.1-23.8-17.8-38.1-10.5c-3.2,1.7-6.2,3.8-8.7,6.5C280.3,35.7,265,30.7,249.2,30
			c-0.5-3.6-1.6-7.1-3.2-10.4c-7.3-14.4-23.9-20.6-37-14c-6.5,3.3-11.2,9.3-13,16.3c-1.9,7.3-1,15.1,2.5,21.8
			c0.7,1.4,1.5,2.8,2.5,4.1c-3.6,4.1-6.3,8.8-8,14c-2.4,7.4-2.6,15.3-0.6,22.8c1.7,6.4,4.5,12.5,8.4,17.9
			c8.7,12.4,22.4,22.3,38.5,27.9l1.5,0.5h0.2c4,1.3,8.1,2.3,12.2,3c1.3,0.2,2.7,0.4,4,0.6c10.4,1.4,21,0.6,31.1-2.4
			c1-0.3,1.8-1.1,2.1-2.2c0.2-0.6,0.2-1.2,0-1.8l0,0c-0.5-1.6-2.3-2.5-3.9-2c-10.9,3.3-23.3,3.6-35.6,0.9c-0.6-0.1-1.1-0.3-1.7-0.4
			c-2.1-0.5-4.1-1.1-6.2-1.8c-22.2-7.2-38.5-22.8-43.7-39.6c-2.3-7-2.3-14.5-0.1-21.6c1.7-5.1,4.5-9.7,8.3-13.5
			c3-3,6.4-5.5,10.1-7.5l0,0c5-2.6,10.4-4.5,16-5.5c4.2-0.8,8.5-1.2,12.8-1.1c16.5,0.2,32.5,5.4,45.9,15c3.5,2.5,6.7,5.3,9.7,8.4
			c3.9,4.1,7.2,8.8,9.7,13.8l0,0c1.9,3.8,3.1,7.8,3.8,12c0.6,4,0.6,8-0.2,12c-0.3,1.3-0.6,2.6-1,3.8c-2.4,7.1-7,13.3-13.2,17.7
			c-0.2,0.2-0.4,0.4-0.6,0.6c-0.2,0.3-0.4,0.6-0.5,1c-0.5,1.7,0.3,3.4,2,4c1,0.3,2,0.2,2.8-0.4c1.4-1,2.7-2,3.9-3.2
			c0.3-0.3,0.6-0.6,1-0.9c2-1.9,3.8-4,5.4-6.3c5.4-7.7,7.9-17.1,7-26.4c1.5-0.5,3-1.1,4.4-1.8c6.8-3.4,12.1-9.1,14.8-16.2
			C343.9,62.6,343.6,55,340.3,48.5z M216.8,36.1c-1.7-2.5-2.4-5.5-1.9-8.4c0.4-3.1,3.2-5.3,6.3-4.9c0.7,0.1,1.4,0.3,2.1,0.7
			c2.2,1.1,4,2.9,5.1,5.1c0.5,1,0.9,2.1,1.1,3.2C225.1,32.8,220.8,34.2,216.8,36.1z M235.7,30.6c-0.3-1.7-0.9-3.4-1.7-4.9
			c-1.7-3.5-4.6-6.3-8.2-8c-5.9-2.9-13-0.6-16,5.3c-0.5,1.1-0.9,2.2-1.1,3.4c-0.8,3.9-0.2,7.8,1.7,11.3c0.3,0.5,0.5,1,0.8,1.5
			c-2,1.3-3.9,2.7-5.8,4.2c-0.5-0.8-1-1.6-1.4-2.4c-2.8-5.3-3.5-11.5-2-17.3c1.3-5.3,4.9-9.8,9.7-12.4c10-5.1,22.8-0.1,28.6,11.2
			c1.2,2.4,2,4.9,2.4,7.5C240.4,30.1,238,30.3,235.7,30.6L235.7,30.6z M308.4,57.4c0.8-0.8,1.8-1.4,2.8-1.9c2.2-1.2,4.7-1.6,7.2-1.1
			c3.1,0.4,5.3,3.2,4.9,6.3c-0.1,0.7-0.3,1.4-0.7,2.1c-1.1,2.2-2.9,4-5.1,5.1c-0.4,0.2-0.9,0.4-1.4,0.6
			C313.9,64.5,311.3,60.8,308.4,57.4L308.4,57.4z M335.3,67c-2.2,5.6-6.4,10.2-11.8,12.8c-0.8,0.4-1.7,0.8-2.6,1.2
			c-0.6-2.3-1.3-4.6-2.2-6.8c0.5-0.2,1-0.4,1.5-0.7c3.5-1.7,6.3-4.6,8-8.2c2.9-5.9,0.6-13-5.3-16c-1.1-0.5-2.2-0.9-3.4-1.1
			c-3.9-0.7-7.8-0.2-11.3,1.7c-1.5,0.8-3,1.8-4.2,3c-1.7-1.6-3.5-3.2-5.4-4.7c1.9-1.9,4-3.4,6.4-4.6c11.3-5.7,24.6-2.3,29.7,7.8
			C337.1,56.2,337.3,61.9,335.3,67z"/>
		<path class="st1" d="M294.2,123.1l-0.8,0.4c-1.6,0.7-2.2,2.6-1.5,4.2s2.6,2.2,4.2,1.5l0.9-0.4c1.6-0.8,2.2-2.7,1.4-4.2
			C297.6,122.9,295.8,122.3,294.2,123.1L294.2,123.1L294.2,123.1z"/>
		<path class="st1" d="M234,66.6c-1.6-0.6-3.4,0.3-4,2c0,0,0,0,0,0l-0.8,2.4c-0.6,1.7,0.3,3.4,2,4s3.4-0.3,4-2l0.8-2.4
			C236.6,69,235.7,67.2,234,66.6C234.1,66.6,234,66.6,234,66.6z"/>
		<path class="st1" d="M284.9,92.4c1.6,0.6,3.4-0.3,4-2c0,0,0,0,0,0l0.8-2.4c0.6-1.7-0.3-3.4-2-4s-3.4,0.3-4,2l0,0l-0.8,2.4
			C282.3,90.1,283.2,91.9,284.9,92.4z"/>
		<path class="st1" d="M293.1,67.5c-11.5-3.7-23.8,2.5-27.6,14L262.1,92l-4.9,14.9c-2-0.7-4.2-1.1-6.4-0.9c-1.7-1.4-3.6-2.4-5.7-3
			l4-12.3l4.3-13.1c3.8-11.5-2.5-23.9-14-27.6c-11.5-3.8-23.9,2.5-27.6,14c-3.8,11.5,2.5,23.9,14,27.6c5.6,1.8,11.7,1.3,16.9-1.4
			l-5.6,17.1c0,0.1,0,0.1,0,0.2c-0.3,0.8-0.4,1.6-0.5,2.4c-0.7,7,4.4,13.2,11.3,13.9c4.9,0.5,9.7-1.9,12.2-6.2
			c0.4-0.7,0.7-1.5,1-2.3l0.1-0.2l5.6-17.2c5.4,10.8,18.5,15.2,29.3,9.8c4.7-2.4,8.4-6.3,10.4-11.2c0.2-0.5,0.4-1.1,0.6-1.6
			C310.8,83.5,304.5,71.2,293.1,67.5z M217.9,66c2.7-8.2,11.4-12.7,19.6-10c8.2,2.7,12.7,11.4,10,19.6s-11.4,12.7-19.6,10
			c0,0,0,0,0,0C219.7,82.9,215.3,74.2,217.9,66z M254.6,114.6c-1.8,3-5.8,3.9-8.7,2.1c-2-1.3-3.2-3.5-3-5.9c0-0.6,0.2-1.2,0.4-1.7
			c0.8,0,3,1.2,4.4,2.5c0.7,0.6,1.6,0.9,2.4,0.8c1.9-0.2,4.4,0.1,5.1,0.6C255.1,113.5,254.9,114.1,254.6,114.6L254.6,114.6z
			 M281.5,103.1c-8.2-2.7-12.6-11.4-10-19.6s11.4-12.6,19.6-10c8.2,2.7,12.6,11.4,10,19.6c-0.3,1-0.8,2-1.3,2.9
			C296.2,102.4,288.5,105.3,281.5,103.1L281.5,103.1z"/>
	</g>
</g>
</svg>
