<svg id="Layer_1" data-name="Layer 1" xmlns="http://www.w3.org/2000/svg" viewBox="0 0 830.74 165.65"><defs><style>.cls-1{fill:#5c443a;}.cls-2{fill:#fcb316;}</style></defs><title>navlogo</title><path class="cls-1" d="M49.85,93.21a61.93,61.93,0,0,1-1.92,15.93,35,35,0,0,1-6,12.5,27.47,27.47,0,0,1-10.33,8.2,35.14,35.14,0,0,1-15,2.93H0v-2.93H3.09a6,6,0,0,0,2.47-.54,8.16,8.16,0,0,0,2.17-1.42,6.82,6.82,0,0,0,1.55-2.09,6.68,6.68,0,0,0,.67-2.47l1-101a8.14,8.14,0,0,0-.54-3.72,3.7,3.7,0,0,0-1.84-1.84,7.39,7.39,0,0,0-2.84-.59q-1.63,0-3.64,0V13.17H20.24a44.74,44.74,0,0,1,12,1.51,25.89,25.89,0,0,1,9.33,4.6,20.86,20.86,0,0,1,6,7.74,26.15,26.15,0,0,1,2.13,11A31.63,31.63,0,0,1,48.59,46a30.42,30.42,0,0,1-3.26,7.86A24.58,24.58,0,0,1,40,60.18a15.43,15.43,0,0,1-7.28,3.43,20.15,20.15,0,0,1,8.24,4.68,25.28,25.28,0,0,1,5.27,7.23,33.5,33.5,0,0,1,2.8,8.7A50.77,50.77,0,0,1,49.85,93.21Zm-8.7.67q0-2.59-.21-5.77a52.27,52.27,0,0,0-.84-6.44,44.58,44.58,0,0,0-1.71-6.36,22.45,22.45,0,0,0-2.76-5.48A13.19,13.19,0,0,0,31.57,66a10.82,10.82,0,0,0-5.65-1.42H19.07l-.92,63.9a19.59,19.59,0,0,0,11.33-3.43,23.37,23.37,0,0,0,7.07-8.28,37.22,37.22,0,0,0,3.6-11.08A72.43,72.43,0,0,0,41.15,93.88ZM19.57,15.77l-.5,45.92h6.61a11.28,11.28,0,0,0,5.27-1.21A13.68,13.68,0,0,0,35,57.29a18.43,18.43,0,0,0,2.89-4.56,33,33,0,0,0,1.88-5.35,43.17,43.17,0,0,0,1-5.48,41.75,41.75,0,0,0,.33-5.06q0-10.7-5.52-15.89T20.41,15.77Z"/><path class="cls-1" d="M96.68,75.57q0,3.51,0,8t-.5,9.2A73.22,73.22,0,0,1,94.63,102a27.7,27.7,0,0,1-3.18,8.11A17.55,17.55,0,0,1,86,115.88a14.67,14.67,0,0,1-8.24,2.17,13.54,13.54,0,0,1-7.49-2,16.65,16.65,0,0,1-5.06-5.1,27.28,27.28,0,0,1-3.18-7.19,59,59,0,0,1-1.76-8.24,76,76,0,0,1-.71-8.15q-.13-4-.13-7.07,0-3.68.08-8.41t.59-9.66a67.89,67.89,0,0,1,1.67-9.62,31.22,31.22,0,0,1,3.35-8.36,17.49,17.49,0,0,1,5.6-5.9,15.25,15.25,0,0,1,8.45-2.22,14.16,14.16,0,0,1,7.32,1.76,14.69,14.69,0,0,1,4.89,4.73,24.77,24.77,0,0,1,3,6.9A54.49,54.49,0,0,1,96,57.88q.5,4.39.58,8.95T96.68,75.57ZM79,39.1a6,6,0,0,0-4.47,1.84,14,14,0,0,0-3,5,39.29,39.29,0,0,0-1.84,7.36q-.67,4.18-1,8.87t-.33,9.53q0,4.85,0,9.37,0,3.26,0,7.07t.29,7.61q.25,3.81.84,7.32a30.07,30.07,0,0,0,1.67,6.23A12.75,12.75,0,0,0,74,113.66,5.5,5.5,0,0,0,78,115.29a5.64,5.64,0,0,0,4.14-1.71A12.82,12.82,0,0,0,85,109a32.69,32.69,0,0,0,1.67-6.57q.58-3.72.88-7.78t.33-8.15q0-4.1,0-7.69,0-7.94-.13-15.14a96,96,0,0,0-1-12.67,26.16,26.16,0,0,0-2.63-8.7A5.63,5.63,0,0,0,79,39.1Z"/><path class="cls-1" d="M117.76,119.22a6.2,6.2,0,0,0,.54,3.22,4,4,0,0,0,1.71,1.67,6.45,6.45,0,0,0,2.55.63,27.67,27.67,0,0,0,3.05,0v2.93l-24.84.17v-2.93q1.76.08,3.3.08a7.4,7.4,0,0,0,2.72-.46,3.65,3.65,0,0,0,1.84-1.59,6.8,6.8,0,0,0,.67-3.39l1.42-98.77a6.38,6.38,0,0,0-.38-2.09,8.4,8.4,0,0,0-1-2,6.18,6.18,0,0,0-1.59-1.59,3.5,3.5,0,0,0-2-.63h-3.09V11.5h25v2.93H124A4.11,4.11,0,0,0,120.77,16a5.33,5.33,0,0,0-1.34,3.51l-.84,43.32q3.09-6,6.61-8.49a13.49,13.49,0,0,1,7.95-2.47,11.33,11.33,0,0,1,6.31,1.71A14.54,14.54,0,0,1,143.81,58a20.2,20.2,0,0,1,2.55,6,26.4,26.4,0,0,1,.84,6.48q0,9.62-.17,19.32t-.17,19.32a8.6,8.6,0,0,0,.38,2.38,8.76,8.76,0,0,0,1.13,2.43,7.23,7.23,0,0,0,1.8,1.88,4.35,4.35,0,0,0,2.3.84h2.26v2.93l-24.67.17v-2.84H133a4.66,4.66,0,0,0,2.17-.71,7.14,7.14,0,0,0,1.76-1.55,8,8,0,0,0,1.21-2,5.84,5.84,0,0,0,.46-2.22q0-7.78.08-15.22V88.57q0-3.39,0-6.69t0-6.31V70q-.08-1.76-.25-4.14a19,19,0,0,0-.84-4.47,8.93,8.93,0,0,0-2.09-3.55,5.34,5.34,0,0,0-4-1.46,8.14,8.14,0,0,0-5,1.63,16,16,0,0,0-3.81,4.14,25,25,0,0,0-2.68,5.56,48.05,48.05,0,0,0-1.63,5.9Z"/><path class="cls-1" d="M196.71,75.57q0,3.51,0,8t-.5,9.2a73.31,73.31,0,0,1-1.5,9.28,27.7,27.7,0,0,1-3.18,8.11,17.55,17.55,0,0,1-5.44,5.73,14.67,14.67,0,0,1-8.24,2.17,13.54,13.54,0,0,1-7.49-2,16.64,16.64,0,0,1-5.06-5.1,27.29,27.29,0,0,1-3.18-7.19,59.1,59.1,0,0,1-1.76-8.24,76.13,76.13,0,0,1-.71-8.15q-.13-4-.12-7.07,0-3.68.08-8.41t.59-9.66a67.68,67.68,0,0,1,1.67-9.62,31.19,31.19,0,0,1,3.34-8.36,17.48,17.48,0,0,1,5.6-5.9,15.25,15.25,0,0,1,8.45-2.22,14.15,14.15,0,0,1,7.32,1.76,14.69,14.69,0,0,1,4.89,4.73,24.77,24.77,0,0,1,3,6.9A54.55,54.55,0,0,1,196,57.88q.5,4.39.58,8.95T196.71,75.57ZM179.06,39.1a6,6,0,0,0-4.47,1.84,14,14,0,0,0-3,5,39.29,39.29,0,0,0-1.84,7.36q-.67,4.18-1,8.87t-.33,9.53q0,4.85,0,9.37,0,3.26,0,7.07t.29,7.61q.25,3.81.84,7.32a30,30,0,0,0,1.67,6.23,12.75,12.75,0,0,0,2.72,4.35,5.51,5.51,0,0,0,4.06,1.63,5.64,5.64,0,0,0,4.14-1.71A12.82,12.82,0,0,0,185,109a32.72,32.72,0,0,0,1.67-6.57q.58-3.72.88-7.78t.33-8.15q0-4.1,0-7.69,0-7.94-.13-15.14a96.2,96.2,0,0,0-1-12.67,26.16,26.16,0,0,0-2.63-8.7A5.63,5.63,0,0,0,179.06,39.1Z"/><path class="cls-1" d="M226.82,125.58l-24.84.84-.17-2.93,2.93-.17a4,4,0,0,0,2.17-.63,6.19,6.19,0,0,0,1.71-1.59,8.45,8.45,0,0,0,1.13-2.09,6.16,6.16,0,0,0,.42-2.13l1.09-92.67a17.83,17.83,0,0,0-.25-2.93,9.7,9.7,0,0,0-.88-2.76,5.65,5.65,0,0,0-1.8-2.09,4.92,4.92,0,0,0-2.93-.84l-2.93.17V12.67h17.31l-1.17,103a6.64,6.64,0,0,0,.46,2.26,10.3,10.3,0,0,0,1.21,2.34,6.87,6.87,0,0,0,1.8,1.8,3.56,3.56,0,0,0,2.3.63h2.43Z"/><path class="cls-1" d="M281.85,67.2h5.94a3.89,3.89,0,0,0,3.64-1.76,7.54,7.54,0,0,0,1-3.93V54.16h3V84.85h-3V75.9q0-3.34-1.55-4.6A7.27,7.27,0,0,0,286.28,70c-.45,0-1.09,0-1.92.08s-1.67.08-2.51.08v58.46l8.7-.17a9.65,9.65,0,0,0,6.73-2.47,8.54,8.54,0,0,0,2.72-6.65V101.91h2.93v29.52l-38.89.84v-2.93q1.84,0,3.55-.17a8.85,8.85,0,0,0,3-.79,4.69,4.69,0,0,0,2-1.92,7.29,7.29,0,0,0,.75-3.64v-100a7.5,7.5,0,0,0-.75-3.72,4.22,4.22,0,0,0-2-1.84,8.31,8.31,0,0,0-3-.59q-1.72,0-3.55,0V13.76l40.23-.33.17,26.85H301.5l-.17-14.89a10.4,10.4,0,0,0-1.25-4.1,8.88,8.88,0,0,0-2.51-2.84,10.92,10.92,0,0,0-3.39-1.63,14.28,14.28,0,0,0-4-.54q-2.09,0-4.22.08t-4.14.08Z"/><path class="cls-1" d="M319.65,53.49a4,4,0,0,0-2.51-2.59,16.46,16.46,0,0,0-5.35-.67V48l23.83.17v2.26h-3.85a2.32,2.32,0,0,0-2.13,1.21,5,5,0,0,0-.71,2.55,56.58,56.58,0,0,0,1.42,6.19q1.42,5.52,4.35,15.39l4.73-11.29q2.13-5.1,3.64-8.87t2.34-6a13.21,13.21,0,0,0,.84-2.63,3.13,3.13,0,0,0-1-2.55,5.75,5.75,0,0,0-2.34-1.13,11,11,0,0,0-2.89-.29q-1.5,0-2.59,0V40.94h21.41V43.2h-3.26a5,5,0,0,0-4.06,1.46,11.22,11.22,0,0,0-2.47,3.64l-12.8,32.2q1.92,6.27,4.35,13.51t5.6,15.68a29.69,29.69,0,0,0,1.13,2.89,2.8,2.8,0,0,0,1.17,1.34,4.13,4.13,0,0,0,1.92.38q1.21,0,3.47-.17l-.17,2.17H330.1v-2h4.77a3.44,3.44,0,0,0,1.92-.54,1.9,1.9,0,0,0,.84-1.71c0-.05-.17-.63-.5-1.71s-.77-2.54-1.3-4.35S334.67,102,334,99.65s-1.51-4.93-2.34-7.61q-2.51,6.27-4.35,10.79t-3,7.53q-1.13,3-1.67,4.68a9.48,9.48,0,0,0-.54,2.17,3.08,3.08,0,0,0,.92,2.47,5,5,0,0,0,2.26,1.09,11.44,11.44,0,0,0,2.8.25q1.46,0,2.55,0v2l-22.08-.17v-2h4.1a4.64,4.64,0,0,0,3.68-1.42,13.1,13.1,0,0,0,2.17-3.6l11.63-28.6q-1.84-5.94-3.72-11.92T323,64.44q-1.51-4.85-2.43-7.86T319.65,53.49Z"/><path class="cls-1" d="M375.18,52.06q2.17-6.69,5.69-9.83a12.36,12.36,0,0,1,8.53-3.14,9.22,9.22,0,0,1,5.18,1.38,11.16,11.16,0,0,1,3.47,3.72,19.16,19.16,0,0,1,2.09,5.35,55.09,55.09,0,0,1,1.09,6.23,62.54,62.54,0,0,1,.42,6.44q0,3.22,0,6,0,7.61-.42,14.85A54.59,54.59,0,0,1,399.1,96a21.51,21.51,0,0,1-5.27,9.16q-3.51,3.47-9.62,3.47a9.19,9.19,0,0,1-5.65-1.84,17.62,17.62,0,0,1-4.22-4.52l-.75,37.22a4.09,4.09,0,0,0,.29,1.88,6.87,6.87,0,0,0,1,1.76,5.16,5.16,0,0,0,1.51,1.3,3.73,3.73,0,0,0,1.88.5q1.17,0,2.38-.08t2.38-.25l.17,3.09-27.43,1.42V146h2.43a17.17,17.17,0,0,0,2.42-.17,3.5,3.5,0,0,0,1.84-.71,6.11,6.11,0,0,0,1.42-1.51,7.7,7.7,0,0,0,.92-1.92,9.34,9.34,0,0,0,.42-1.88l1.51-90.07a5.27,5.27,0,0,0-1-3.47,4.88,4.88,0,0,0-2.38-1.55,10.39,10.39,0,0,0-3.18-.38q-1.76,0-3.35,0V41.28l18.48.17Zm11.46-8.36a5.57,5.57,0,0,0-3.43,1.13,12.11,12.11,0,0,0-2.76,3,21.86,21.86,0,0,0-2.17,4.27A47.77,47.77,0,0,0,376.69,57q-.67,2.51-1.13,4.93t-.71,4.35L374.35,97a29.53,29.53,0,0,0,1.8,2.63,16.58,16.58,0,0,0,2.34,2.51,12.1,12.1,0,0,0,2.8,1.84,7.16,7.16,0,0,0,3.09.71,6,6,0,0,0,5.39-3,22.15,22.15,0,0,0,2.76-8.07,78.9,78.9,0,0,0,1-11.79q.13-6.69.13-14.13,0-4.93-.12-9.28a47.26,47.26,0,0,0-.75-7.57,12,12,0,0,0-2.09-5.1,4.85,4.85,0,0,0-4.06-1.88Z"/><path class="cls-1" d="M430.63,125.58l-24.84.84-.17-2.93,2.93-.17a4,4,0,0,0,2.17-.63,6.19,6.19,0,0,0,1.71-1.59,8.45,8.45,0,0,0,1.13-2.09,6.16,6.16,0,0,0,.42-2.13l1.09-92.67a17.83,17.83,0,0,0-.25-2.93,9.7,9.7,0,0,0-.88-2.76,5.65,5.65,0,0,0-1.8-2.09,4.92,4.92,0,0,0-2.93-.84l-2.93.17V12.67h17.31l-1.17,103a6.64,6.64,0,0,0,.46,2.26,10.3,10.3,0,0,0,1.21,2.34,6.87,6.87,0,0,0,1.8,1.8,3.56,3.56,0,0,0,2.3.63h2.43Z"/><path class="cls-1" d="M473.29,75.57q0,3.51,0,8t-.5,9.2a73.31,73.31,0,0,1-1.5,9.28,27.7,27.7,0,0,1-3.18,8.11,17.55,17.55,0,0,1-5.44,5.73,14.67,14.67,0,0,1-8.24,2.17,13.54,13.54,0,0,1-7.49-2,16.64,16.64,0,0,1-5.06-5.1,27.29,27.29,0,0,1-3.18-7.19,59.1,59.1,0,0,1-1.76-8.24,76.13,76.13,0,0,1-.71-8.15q-.13-4-.12-7.07,0-3.68.08-8.41t.59-9.66a67.68,67.68,0,0,1,1.67-9.62,31.19,31.19,0,0,1,3.34-8.36,17.48,17.48,0,0,1,5.6-5.9,15.25,15.25,0,0,1,8.45-2.22,14.15,14.15,0,0,1,7.32,1.76A14.69,14.69,0,0,1,468,42.66a24.77,24.77,0,0,1,3,6.9,54.55,54.55,0,0,1,1.59,8.32q.5,4.39.58,8.95T473.29,75.57ZM455.64,39.1a6,6,0,0,0-4.48,1.84,14,14,0,0,0-3,5,39.29,39.29,0,0,0-1.84,7.36q-.67,4.18-1,8.87t-.33,9.53q0,4.85,0,9.37,0,3.26,0,7.07t.29,7.61q.25,3.81.84,7.32a30,30,0,0,0,1.67,6.23,12.75,12.75,0,0,0,2.72,4.35,5.51,5.51,0,0,0,4.06,1.63,5.64,5.64,0,0,0,4.14-1.71,12.82,12.82,0,0,0,2.8-4.56,32.72,32.72,0,0,0,1.67-6.57q.58-3.72.88-7.78t.33-8.15q0-4.1,0-7.69,0-7.94-.13-15.14a96.2,96.2,0,0,0-1-12.67,26.16,26.16,0,0,0-2.63-8.7A5.63,5.63,0,0,0,455.64,39.1Z"/><path class="cls-1" d="M501,129.17h5l-.17,3.09-27.26-.33V129h4.77a3.53,3.53,0,0,0,1.92-.59,5.8,5.8,0,0,0,1.55-1.42,7.35,7.35,0,0,0,1-1.84,5.28,5.28,0,0,0,.38-1.84l.5-68.5a5.27,5.27,0,0,0-1-3.47,4.88,4.88,0,0,0-2.42-1.55,10.16,10.16,0,0,0-3.26-.33q-1.8.08-3.47.08V46.63q4.77,0,9.41-.08t9.41-.08a40.72,40.72,0,0,1,10.75,1.3,20,20,0,0,1,8,4.14A17.75,17.75,0,0,1,521,59.21,31,31,0,0,1,522.71,70a32.81,32.81,0,0,1-.79,7,25.36,25.36,0,0,1-2.51,6.77A17.44,17.44,0,0,1,515,89.11a12,12,0,0,1-6.65,2.51,19.68,19.68,0,0,1,8.61,6.94,19.35,19.35,0,0,1,3.43,10.37q.17,5.52.46,11t.71,10.91a22.94,22.94,0,0,0,.71,4.43,11.25,11.25,0,0,0,1.59,3.51,7.07,7.07,0,0,0,2.76,2.34,10.41,10.41,0,0,0,4.22.92v2.51a17.85,17.85,0,0,1-6.52-1.17,19.52,19.52,0,0,1-5.35-3.09,17.08,17.08,0,0,1-3.85-4.43,14.3,14.3,0,0,1-1.92-5.19A59.23,59.23,0,0,1,512.3,120q0-5.44-.38-10.87a42.64,42.64,0,0,0-.75-5.06,23.83,23.83,0,0,0-1.84-5.52A15.12,15.12,0,0,0,506.15,94a6.43,6.43,0,0,0-4.6-1.84H496.7l-.17,31.28a6.06,6.06,0,0,0,.33,1.92,7,7,0,0,0,.92,1.84,5.13,5.13,0,0,0,1.42,1.38A3.16,3.16,0,0,0,501,129.17Zm1.09-39.39a8.58,8.58,0,0,0,6.15-2.17,14.28,14.28,0,0,0,3.51-5.31,26.11,26.11,0,0,0,1.59-6.73,63.14,63.14,0,0,0,.38-6.52,39.54,39.54,0,0,0-.67-7.32,17.93,17.93,0,0,0-2.34-6.23,12.56,12.56,0,0,0-4.56-4.31,14.73,14.73,0,0,0-7.32-1.63h-.92a2.24,2.24,0,0,0-.84.17l-.33,40.06Z"/><path class="cls-1" d="M546,73.31q3.76,0,6.15.13a7.09,7.09,0,0,0,3.64-.54,3.41,3.41,0,0,0,1.63-2.51,28.72,28.72,0,0,0,.29-5.77h2.84V87.19h-2.84V80.67a6.32,6.32,0,0,0-.21-1.51,5.86,5.86,0,0,0-.63-1.55,4.79,4.79,0,0,0-1-1.21,2.11,2.11,0,0,0-1.42-.5l-8.45.17.92,33.37h5q2.43,0,4.85-.17a6.8,6.8,0,0,0,3.05-.92,10.4,10.4,0,0,0,2.59-2.09,10.24,10.24,0,0,0,1.8-2.8,7.66,7.66,0,0,0,.67-3.05l.17-11.79H568L567.79,112q-9.62.17-19.32.46t-19.32.54l-.17-3q2.17,0,3.89,0a6.79,6.79,0,0,0,2.89-.63,3.91,3.91,0,0,0,1.8-1.92,9.6,9.6,0,0,0,.63-3.93V103L537,49.05a11.6,11.6,0,0,0-.75-4.14,4.9,4.9,0,0,0-1.88-2.3,6.86,6.86,0,0,0-3-.92,33,33,0,0,0-4.14-.08l-.17-2.84L566,37.68l.17,23.84h-2.93L563,49.05a11.31,11.31,0,0,0-1.38-5.69q-1.38-2.42-5.14-2.43-2.84,0-5.56.08t-5.56.08Z"/><path class="cls-1" d="M595.22,129.17h5l-.17,3.09-27.26-.33V129h4.77a3.53,3.53,0,0,0,1.92-.59A5.8,5.8,0,0,0,581,127a7.35,7.35,0,0,0,1-1.84,5.28,5.28,0,0,0,.38-1.84l.5-68.5a5.27,5.27,0,0,0-1-3.47,4.88,4.88,0,0,0-2.42-1.55,10.16,10.16,0,0,0-3.26-.33q-1.8.08-3.47.08V46.63q4.77,0,9.41-.08t9.41-.08a40.72,40.72,0,0,1,10.75,1.3,20,20,0,0,1,8,4.14,17.75,17.75,0,0,1,4.93,7.32A31,31,0,0,1,617,70a32.81,32.81,0,0,1-.79,7,25.36,25.36,0,0,1-2.51,6.77,17.44,17.44,0,0,1-4.43,5.31,12,12,0,0,1-6.65,2.51,19.68,19.68,0,0,1,8.61,6.94,19.35,19.35,0,0,1,3.43,10.37q.17,5.52.46,11t.71,10.91a22.94,22.94,0,0,0,.71,4.43,11.25,11.25,0,0,0,1.59,3.51,7.07,7.07,0,0,0,2.76,2.34,10.41,10.41,0,0,0,4.22.92v2.51a17.85,17.85,0,0,1-6.52-1.17,19.52,19.52,0,0,1-5.35-3.09,17.08,17.08,0,0,1-3.85-4.43,14.3,14.3,0,0,1-1.92-5.19,59.23,59.23,0,0,1-.88-10.71q0-5.44-.38-10.87a42.64,42.64,0,0,0-.75-5.06,23.83,23.83,0,0,0-1.84-5.52A15.12,15.12,0,0,0,600.41,94a6.43,6.43,0,0,0-4.6-1.84H591l-.17,31.28a6.06,6.06,0,0,0,.33,1.92,7,7,0,0,0,.92,1.84,5.13,5.13,0,0,0,1.42,1.38A3.16,3.16,0,0,0,595.22,129.17Zm1.09-39.39a8.58,8.58,0,0,0,6.15-2.17A14.28,14.28,0,0,0,606,82.3a26.11,26.11,0,0,0,1.59-6.73,63.14,63.14,0,0,0,.38-6.52,39.54,39.54,0,0,0-.67-7.32,17.93,17.93,0,0,0-2.34-6.23,12.56,12.56,0,0,0-4.56-4.31A14.73,14.73,0,0,0,593,49.56h-.92a2.24,2.24,0,0,0-.84.17L591,89.78Z"/><path class="cls-2" d="M827.37,56.92C819,40.51,797.59,34.6,779.58,43.76a40.09,40.09,0,0,0-10.88,8.12,109.34,109.34,0,0,0-55.49-18.06,40.49,40.49,0,0,0-4-13c-9.17-18-30-25.86-46.37-17.5a31.8,31.8,0,0,0-16.25,20.47,38.23,38.23,0,0,0,3.08,27.31,42.42,42.42,0,0,0,3.12,5.15,50.13,50.13,0,0,0-10,17.48,51.28,51.28,0,0,0-.81,28.58,66.82,66.82,0,0,0,10.48,22.37c11,15.58,28,27.93,48.21,34.94l1.84.62.19.06a109.46,109.46,0,0,0,15.3,3.79c1.67.29,3.34.55,5,.74a93.76,93.76,0,0,0,38.9-3,3.94,3.94,0,0,0,2.65-2.74,3.88,3.88,0,0,0,0-2.2l0-.06a3.94,3.94,0,0,0-4.9-2.55c-13.61,4.16-29.12,4.53-44.53,1.17-.72-.15-1.43-.32-2.15-.49-2.6-.63-5.2-1.36-7.78-2.2-27.85-9.07-48.25-28.61-54.71-49.58a44.27,44.27,0,0,1-.12-27,42.59,42.59,0,0,1,10.44-16.93,53.5,53.5,0,0,1,12.68-9.34h0a69.66,69.66,0,0,1,20-6.88,86.14,86.14,0,0,1,16.08-1.42,100.9,100.9,0,0,1,57.52,18.72A85.72,85.72,0,0,1,779.22,71a69.65,69.65,0,0,1,12.12,17.32s0,0,0,0a53.39,53.39,0,0,1,4.75,15,43.2,43.2,0,0,1-.28,15.07,41,41,0,0,1-1.25,4.77,44.6,44.6,0,0,1-16.51,22.12,4,4,0,0,0-.77.74,3.88,3.88,0,0,0-.66,1.2,3.94,3.94,0,0,0,6.07,4.44,57.82,57.82,0,0,0,4.87-4c.41-.36.81-.74,1.22-1.14a52.93,52.93,0,0,0,6.75-7.88,49.53,49.53,0,0,0,8.78-33.08,41,41,0,0,0,5.56-2.32A38.22,38.22,0,0,0,828.45,83,31.75,31.75,0,0,0,827.37,56.92ZM672.64,41.51a14.5,14.5,0,0,1-2.35-10.56,7,7,0,0,1,10.44-5.3,13.73,13.73,0,0,1,6.43,6.41,14.85,14.85,0,0,1,1.37,4A77.12,77.12,0,0,0,672.64,41.51Zm23.67-6.9a22.82,22.82,0,0,0-2.1-6.14,21.72,21.72,0,0,0-10.22-10,14.91,14.91,0,0,0-21.41,10.89,21.6,21.6,0,0,0,2.08,14.17c.32.63.67,1.24,1,1.82a61,61,0,0,0-7.2,5.3,32.26,32.26,0,0,1-1.8-3.08,30.45,30.45,0,0,1-2.49-21.69,24,24,0,0,1,12.2-15.49c12.53-6.37,28.58-.07,35.76,14a32.26,32.26,0,0,1,3.06,9.4Q700.71,34,696.31,34.6Zm91,33.59a15.59,15.59,0,0,1,3.45-2.39,13.77,13.77,0,0,1,9-1.4,7,7,0,0,1,5.31,10.44,13.73,13.73,0,0,1-6.41,6.43A15.91,15.91,0,0,1,797,82,77.41,77.41,0,0,0,787.34,68.19Zm33.74,12A30.39,30.39,0,0,1,806.3,96.26,30.83,30.83,0,0,1,803,97.69a61.21,61.21,0,0,0-2.71-8.52c.66-.26,1.29-.55,1.92-.86a21.69,21.69,0,0,0,10-10.24,14.91,14.91,0,0,0-10.89-21.41,21.68,21.68,0,0,0-14.17,2.09,22.85,22.85,0,0,0-5.31,3.71c-2.13-2-4.39-4-6.75-5.88a32.26,32.26,0,0,1,8-5.79C797.28,43.62,814,48,820.33,60.51A24,24,0,0,1,821.08,80.2Z"/><path class="cls-2" d="M769.6,150.39l-1,.47A3.95,3.95,0,0,0,772,158l1.11-.53a3.95,3.95,0,1,0-3.49-7.08Z"/><path class="cls-2" d="M694.25,79.69a4,4,0,0,0-5,2.53l-1,3a3.95,3.95,0,1,0,7.51,2.44l1-3A4,4,0,0,0,694.25,79.69Z"/><path class="cls-2" d="M758,112a4,4,0,0,0,5-2.53l1-3a3.95,3.95,0,1,0-7.51-2.44l-1,3A4,4,0,0,0,758,112Z"/><path class="cls-2" d="M768.19,80.75a27.42,27.42,0,0,0-34.52,17.56l-4.29,13.16-6.08,18.65a20.41,20.41,0,0,0-7.95-1.18,20.47,20.47,0,0,0-7.12-3.73l5-15.43,5.34-16.39a27.43,27.43,0,1,0-13.46,15.83l-7,21.47a2.17,2.17,0,0,0-.06.23,15.34,15.34,0,0,0-.66,3.06,15.86,15.86,0,0,0,29.45,9.59,16.24,16.24,0,0,0,1.28-2.86c0-.07.06-.15.09-.22l7-21.47A27.37,27.37,0,0,0,785,117.29c.28-.66.53-1.32.75-2A27.42,27.42,0,0,0,768.19,80.75ZM674,78.89a19.5,19.5,0,1,1,12.51,24.57A19.52,19.52,0,0,1,674,78.89Zm46,60.83a8,8,0,0,1-14.73-4.8,5.83,5.83,0,0,1,.56-2.14c1,0,3.74,1.51,5.57,3.15a4,4,0,0,0,3.06,1c2.43-.26,5.52.11,6.35.73A5.84,5.84,0,0,1,720,139.71Zm33.68-14.38a19.5,19.5,0,1,1,24.57-12.5,19.8,19.8,0,0,1-1.58,3.59A19.55,19.55,0,0,1,753.68,125.33Z"/></svg>